<svg width="30" height="30" viewBox="0 0 30 30" fill="none" xmlns="http://www.w3.org/2000/svg">
<path d="M22 29C23.1046 29 24 27.8807 24 26.5C24 25.1193 23.1046 24 22 24C20.8954 24 20 25.1193 20 26.5C20 27.8807 20.8954 29 22 29Z" stroke="black" stroke-width="2" stroke-linecap="round" stroke-linejoin="round"/>
<path d="M9.5 29C10.8807 29 12 27.8807 12 26.5C12 25.1193 10.8807 24 9.5 24C8.11929 24 7 25.1193 7 26.5C7 27.8807 8.11929 29 9.5 29Z" stroke="black" stroke-width="2" stroke-linecap="round" stroke-linejoin="round"/>
<path d="M2.103 4.8H25.7708C27.9138 4.8 29.4616 6.81173 28.8746 8.83407L26.301 17.7007C25.906 19.0615 24.639 20 23.1971 20H8.95144C7.50952 20 6.24256 19.0615 5.84759 17.7007L2.103 4.8ZM2.103 4.8L1 1" stroke="black" stroke-width="2" stroke-linecap="round" stroke-linejoin="round"/>
</svg>
