<svg width="30" height="17" viewBox="0 0 30 17" fill="none" xmlns="http://www.w3.org/2000/svg">
<mask id="path-1-inside-1_93_695" fill="white">
<path d="M29.6381 15.3529C29.602 15.2751 29.5684 15.2106 29.5372 15.1589C29.0202 14.2279 28.0323 13.0851 26.5741 11.7302L26.5432 11.6991L26.5278 11.6839L26.5122 11.6683H26.4966C25.8347 11.0374 25.4156 10.6132 25.2401 10.396C24.919 9.98232 24.8471 9.56354 25.0226 9.13923C25.1466 8.81864 25.6123 8.1416 26.4188 7.10719C26.843 6.55898 27.179 6.11962 27.4271 5.7886C29.2165 3.40973 29.9922 1.8896 29.7542 1.22761L29.6618 1.07292C29.5997 0.979782 29.4394 0.894582 29.1811 0.81688C28.9223 0.739341 28.5914 0.726518 28.188 0.778193L23.7202 0.809056C23.6478 0.783409 23.5444 0.785799 23.4098 0.81688C23.2753 0.847961 23.208 0.863556 23.208 0.863556L23.1303 0.902407L23.0686 0.949082C23.0168 0.979945 22.9599 1.03423 22.8978 1.11182C22.8361 1.18914 22.7844 1.27988 22.7431 1.38329C22.2567 2.63472 21.7036 3.79824 21.0829 4.87378C20.7002 5.51512 20.3488 6.07093 20.0278 6.54154C19.7073 7.01199 19.4384 7.35861 19.2213 7.58079C19.004 7.80319 18.8078 7.98136 18.6317 8.11595C18.4558 8.2506 18.3215 8.30749 18.2286 8.28668C18.1354 8.26587 18.0476 8.24522 17.9645 8.22457C17.8198 8.13144 17.7034 8.00478 17.6157 7.84449C17.5276 7.68419 17.4682 7.48244 17.4372 7.23939C17.4063 6.99618 17.3881 6.78698 17.3829 6.61109C17.378 6.43542 17.3803 6.18694 17.3907 5.86635C17.4015 5.5456 17.4063 5.32858 17.4063 5.2148C17.4063 4.82173 17.414 4.39513 17.4294 3.93489C17.445 3.47466 17.4577 3.11001 17.4683 2.84136C17.4788 2.57245 17.4837 2.28794 17.4837 1.988C17.4837 1.68806 17.4655 1.45284 17.4294 1.28211C17.3937 1.1116 17.339 0.946093 17.2669 0.785637C17.1944 0.625343 17.0882 0.501346 16.9489 0.41332C16.8093 0.325403 16.6357 0.255635 16.4292 0.203797C15.881 0.0797461 15.1829 0.0126401 14.3347 0.00220737C12.4111 -0.0184406 11.1751 0.105773 10.6269 0.374686C10.4098 0.488305 10.2132 0.643545 10.0375 0.839919C9.85128 1.06754 9.82531 1.19175 9.95973 1.21218C10.5804 1.30515 11.0197 1.52755 11.2783 1.87917L11.3715 2.06549C11.444 2.19992 11.5164 2.43791 11.5888 2.77915C11.6611 3.12038 11.7078 3.49786 11.7283 3.91137C11.78 4.66649 11.78 5.31288 11.7283 5.8506C11.6766 6.38853 11.6277 6.8073 11.581 7.10724C11.5343 7.40718 11.4645 7.65023 11.3715 7.83634C11.2783 8.02249 11.2163 8.13628 11.1852 8.17757C11.1542 8.21887 11.1284 8.2449 11.1078 8.25511C10.9734 8.30662 10.8336 8.33287 10.6889 8.33287C10.544 8.33287 10.3682 8.26038 10.1614 8.11552C9.95468 7.97066 9.7401 7.77168 9.5177 7.51825C9.2953 7.26477 9.04448 6.91054 8.76514 6.45553C8.48601 6.00051 8.19639 5.46274 7.89645 4.84221L7.6483 4.39219C7.49317 4.10269 7.28125 3.68114 7.01234 3.12794C6.74326 2.57452 6.50543 2.03919 6.29868 1.52206C6.21603 1.30488 6.09187 1.13953 5.92642 1.02575L5.84877 0.979076C5.79715 0.93778 5.71428 0.89393 5.60061 0.8472C5.48678 0.800525 5.368 0.767053 5.24378 0.746459L0.993061 0.777323C0.558692 0.777323 0.263969 0.875727 0.108782 1.07226L0.0466754 1.16523C0.015649 1.21702 0 1.29972 0 1.41355C0 1.52734 0.0310264 1.66698 0.0931334 1.83233C0.713661 3.29073 1.38847 4.69724 2.11756 6.05208C2.84666 7.40691 3.48022 8.49827 4.01789 9.32517C4.55566 10.1527 5.10381 10.9336 5.66234 11.6677C6.22087 12.4021 6.59058 12.8727 6.77146 13.0795C6.95257 13.2866 7.09482 13.4415 7.19823 13.5449L7.58614 13.9171C7.83435 14.1654 8.19884 14.4627 8.67978 14.8091C9.16082 15.1557 9.69337 15.497 10.2777 15.8334C10.8622 16.1692 11.5421 16.4433 12.3178 16.6553C13.0935 16.8675 13.8485 16.9526 14.5828 16.9115H16.3669C16.7288 16.8803 17.0029 16.7665 17.1892 16.5701L17.2509 16.4924C17.2924 16.4306 17.3313 16.3347 17.3672 16.2057C17.4035 16.0764 17.4215 15.934 17.4215 15.7791C17.4109 15.3344 17.4447 14.9337 17.5221 14.5769C17.5994 14.2203 17.6876 13.9514 17.7861 13.7703C17.8847 13.5893 17.9958 13.4366 18.1196 13.3128C18.2436 13.1888 18.3319 13.1136 18.3837 13.0878C18.4353 13.0618 18.4764 13.0441 18.5074 13.0335C18.7556 12.9508 19.0477 13.0309 19.3842 13.2742C19.7204 13.5172 20.0357 13.8173 20.3306 14.174C20.6254 14.531 20.9796 14.9315 21.3932 15.3761C21.8071 15.8209 22.169 16.1516 22.4791 16.3691L22.7893 16.5552C22.9964 16.6794 23.2653 16.7932 23.5963 16.8966C23.9268 17 24.2163 17.0258 24.4649 16.9742L28.4362 16.9122C28.829 16.9122 29.1346 16.8472 29.3514 16.7181C29.5687 16.5889 29.6977 16.4465 29.7393 16.2915C29.7809 16.1365 29.7831 15.9605 29.7472 15.7638C29.7104 15.5676 29.6742 15.4304 29.6381 15.3529Z"/>
</mask>
<path d="M29.6381 15.3529C29.602 15.2751 29.5684 15.2106 29.5372 15.1589C29.0202 14.2279 28.0323 13.0851 26.5741 11.7302L26.5432 11.6991L26.5278 11.6839L26.5122 11.6683H26.4966C25.8347 11.0374 25.4156 10.6132 25.2401 10.396C24.919 9.98232 24.8471 9.56354 25.0226 9.13923C25.1466 8.81864 25.6123 8.1416 26.4188 7.10719C26.843 6.55898 27.179 6.11962 27.4271 5.7886C29.2165 3.40973 29.9922 1.8896 29.7542 1.22761L29.6618 1.07292C29.5997 0.979782 29.4394 0.894582 29.1811 0.81688C28.9223 0.739341 28.5914 0.726518 28.188 0.778193L23.7202 0.809056C23.6478 0.783409 23.5444 0.785799 23.4098 0.81688C23.2753 0.847961 23.208 0.863556 23.208 0.863556L23.1303 0.902407L23.0686 0.949082C23.0168 0.979945 22.9599 1.03423 22.8978 1.11182C22.8361 1.18914 22.7844 1.27988 22.7431 1.38329C22.2567 2.63472 21.7036 3.79824 21.0829 4.87378C20.7002 5.51512 20.3488 6.07093 20.0278 6.54154C19.7073 7.01199 19.4384 7.35861 19.2213 7.58079C19.004 7.80319 18.8078 7.98136 18.6317 8.11595C18.4558 8.2506 18.3215 8.30749 18.2286 8.28668C18.1354 8.26587 18.0476 8.24522 17.9645 8.22457C17.8198 8.13144 17.7034 8.00478 17.6157 7.84449C17.5276 7.68419 17.4682 7.48244 17.4372 7.23939C17.4063 6.99618 17.3881 6.78698 17.3829 6.61109C17.378 6.43542 17.3803 6.18694 17.3907 5.86635C17.4015 5.5456 17.4063 5.32858 17.4063 5.2148C17.4063 4.82173 17.414 4.39513 17.4294 3.93489C17.445 3.47466 17.4577 3.11001 17.4683 2.84136C17.4788 2.57245 17.4837 2.28794 17.4837 1.988C17.4837 1.68806 17.4655 1.45284 17.4294 1.28211C17.3937 1.1116 17.339 0.946093 17.2669 0.785637C17.1944 0.625343 17.0882 0.501346 16.9489 0.41332C16.8093 0.325403 16.6357 0.255635 16.4292 0.203797C15.881 0.0797461 15.1829 0.0126401 14.3347 0.00220737C12.4111 -0.0184406 11.1751 0.105773 10.6269 0.374686C10.4098 0.488305 10.2132 0.643545 10.0375 0.839919C9.85128 1.06754 9.82531 1.19175 9.95973 1.21218C10.5804 1.30515 11.0197 1.52755 11.2783 1.87917L11.3715 2.06549C11.444 2.19992 11.5164 2.43791 11.5888 2.77915C11.6611 3.12038 11.7078 3.49786 11.7283 3.91137C11.78 4.66649 11.78 5.31288 11.7283 5.8506C11.6766 6.38853 11.6277 6.8073 11.581 7.10724C11.5343 7.40718 11.4645 7.65023 11.3715 7.83634C11.2783 8.02249 11.2163 8.13628 11.1852 8.17757C11.1542 8.21887 11.1284 8.2449 11.1078 8.25511C10.9734 8.30662 10.8336 8.33287 10.6889 8.33287C10.544 8.33287 10.3682 8.26038 10.1614 8.11552C9.95468 7.97066 9.7401 7.77168 9.5177 7.51825C9.2953 7.26477 9.04448 6.91054 8.76514 6.45553C8.48601 6.00051 8.19639 5.46274 7.89645 4.84221L7.6483 4.39219C7.49317 4.10269 7.28125 3.68114 7.01234 3.12794C6.74326 2.57452 6.50543 2.03919 6.29868 1.52206C6.21603 1.30488 6.09187 1.13953 5.92642 1.02575L5.84877 0.979076C5.79715 0.93778 5.71428 0.89393 5.60061 0.8472C5.48678 0.800525 5.368 0.767053 5.24378 0.746459L0.993061 0.777323C0.558692 0.777323 0.263969 0.875727 0.108782 1.07226L0.0466754 1.16523C0.015649 1.21702 0 1.29972 0 1.41355C0 1.52734 0.0310264 1.66698 0.0931334 1.83233C0.713661 3.29073 1.38847 4.69724 2.11756 6.05208C2.84666 7.40691 3.48022 8.49827 4.01789 9.32517C4.55566 10.1527 5.10381 10.9336 5.66234 11.6677C6.22087 12.4021 6.59058 12.8727 6.77146 13.0795C6.95257 13.2866 7.09482 13.4415 7.19823 13.5449L7.58614 13.9171C7.83435 14.1654 8.19884 14.4627 8.67978 14.8091C9.16082 15.1557 9.69337 15.497 10.2777 15.8334C10.8622 16.1692 11.5421 16.4433 12.3178 16.6553C13.0935 16.8675 13.8485 16.9526 14.5828 16.9115H16.3669C16.7288 16.8803 17.0029 16.7665 17.1892 16.5701L17.2509 16.4924C17.2924 16.4306 17.3313 16.3347 17.3672 16.2057C17.4035 16.0764 17.4215 15.934 17.4215 15.7791C17.4109 15.3344 17.4447 14.9337 17.5221 14.5769C17.5994 14.2203 17.6876 13.9514 17.7861 13.7703C17.8847 13.5893 17.9958 13.4366 18.1196 13.3128C18.2436 13.1888 18.3319 13.1136 18.3837 13.0878C18.4353 13.0618 18.4764 13.0441 18.5074 13.0335C18.7556 12.9508 19.0477 13.0309 19.3842 13.2742C19.7204 13.5172 20.0357 13.8173 20.3306 14.174C20.6254 14.531 20.9796 14.9315 21.3932 15.3761C21.8071 15.8209 22.169 16.1516 22.4791 16.3691L22.7893 16.5552C22.9964 16.6794 23.2653 16.7932 23.5963 16.8966C23.9268 17 24.2163 17.0258 24.4649 16.9742L28.4362 16.9122C28.829 16.9122 29.1346 16.8472 29.3514 16.7181C29.5687 16.5889 29.6977 16.4465 29.7393 16.2915C29.7809 16.1365 29.7831 15.9605 29.7472 15.7638C29.7104 15.5676 29.6742 15.4304 29.6381 15.3529Z" stroke="white" stroke-width="2" mask="url(#path-1-inside-1_93_695)"/>
</svg>
