<svg width="18" height="19" viewBox="0 0 18 19" fill="none" xmlns="http://www.w3.org/2000/svg">
<path d="M18 9.26C18 14.1 14.04 18.02 9.16 18.02C7.62 18.02 6.16 17.62 4.88 16.92L0 18.5L1.6 13.8C0.8 12.48 0.34 10.92 0.34 9.28C0.32 4.42 4.28 0.5 9.16 0.5C14.04 0.5 18 4.42 18 9.26ZM9.16 1.9C5.06 1.9 1.74 5.2 1.74 9.26C1.74 10.88 2.26 12.36 3.16 13.58L2.24 16.32L5.1 15.42C6.28 16.2 7.68 16.64 9.18 16.64C13.26 16.64 16.6 13.34 16.6 9.26C16.6 5.18 13.26 1.9 9.16 1.9ZM13.62 11.28C13.56 11.2 13.42 11.14 13.2 11.02C12.98 10.92 11.92 10.4 11.72 10.32C11.52 10.24 11.38 10.22 11.24 10.42C11.1 10.64 10.68 11.12 10.56 11.26C10.44 11.4 10.3 11.42 10.1 11.32C9.88 11.22 9.18 10.98 8.36 10.26C7.72 9.7 7.28 8.98 7.16 8.78C7.04 8.56 7.14 8.44 7.26 8.34C7.36 8.24 7.48 8.08 7.58 7.96C7.68 7.84 7.72 7.74 7.8 7.6C7.88 7.46 7.84 7.34 7.78 7.22C7.72 7.12 7.3 6.06 7.12 5.62C6.94 5.2 6.76 5.26 6.64 5.26C6.52 5.26 6.36 5.24 6.22 5.24C6.08 5.24 5.84 5.3 5.64 5.5C5.44 5.72 4.88 6.24 4.88 7.3C4.88 8.36 5.66 9.38 5.76 9.52C5.86 9.66 7.26 11.9 9.46 12.76C11.66 13.62 11.66 13.34 12.06 13.3C12.46 13.26 13.34 12.78 13.52 12.28C13.68 11.8 13.68 11.38 13.62 11.28Z" fill="white"/>
</svg>
